/* XPM */
static char *result[] = {
/* columns rows colors chars-per-pixel */
"64 64 234 2 ",
"   c #003400",
".  c #004D00",
"X  c #004000",
"o  c #005400",
"O  c #005A00",
"+  c #006300",
"@  c #016D01",
"#  c #017401",
"$  c #017C01",
"%  c #0A7E0B",
"&  c #10700F",
"*  c #287227",
"=  c #447E46",
"-  c #EC1004",
";  c #EA220C",
":  c #E43522",
">  c #EE4D32",
",  c #F4673A",
"<  c #F2723A",
"1  c #F26A42",
"2  c #F47C48",
"3  c #EF7152",
"4  c #E66A73",
"5  c #E25052",
"6  c #008401",
"7  c #018B00",
"8  c #0C850B",
"9  c #009301",
"0  c #009B01",
"q  c #0D9E0D",
"w  c #128A12",
"e  c #179518",
"r  c #01A401",
"t  c #01AC01",
"y  c #0BAB0B",
"u  c #0BA50A",
"i  c #01B301",
"p  c #01BC01",
"a  c #06B409",
"s  c #09B809",
"d  c #15A616",
"f  c #19B819",
"g  c #0EB112",
"h  c #289929",
"j  c #2C8A2D",
"k  c #26A525",
"l  c #37A339",
"z  c #3AB738",
"x  c #30B330",
"c  c #01C401",
"v  c #01CC01",
"b  c #0CC80D",
"n  c #01D201",
"m  c #0AD20B",
"M  c #08DC08",
"N  c #13C314",
"B  c #15C515",
"V  c #0ED411",
"C  c #15CD14",
"Z  c #01E400",
"A  c #01EB01",
"S  c #08E707",
"D  c #02F302",
"F  c #00FC00",
"G  c #0AFF09",
"H  c #19F91B",
"J  c #18EE19",
"K  c #23C723",
"L  c #22D521",
"P  c #38C93A",
"I  c #34D836",
"U  c #29FD29",
"Y  c #3CFF3A",
"T  c #35FF35",
"R  c #2FE12D",
"E  c #448E44",
"W  c #4BB24D",
"Q  c #54AF53",
"!  c #56B657",
"~  c #41A241",
"^  c #5F9563",
"/  c #6D9F6F",
"(  c #5FBF60",
")  c #6BA26B",
"_  c #68B96C",
"`  c #79AC7B",
"'  c #6EBB72",
"]  c #3FC941",
"[  c #43CA43",
"{  c #47CA47",
"}  c #41D747",
"|  c #58D657",
" . c #54CF56",
".. c #47E548",
"X. c #44FF45",
"o. c #4BFF4A",
"O. c #4EFE51",
"+. c #57FB58",
"@. c #5AE555",
"#. c #68DA68",
"$. c #76C877",
"%. c #70D270",
"&. c #5DFF60",
"*. c #6CFE6D",
"=. c #65FA63",
"-. c #74FE73",
";. c #7AFD79",
":. c #67EB69",
">. c #F98806",
",. c #F79818",
"<. c #FB950D",
"1. c #F8A111",
"2. c #F89B27",
"3. c #F58937",
"4. c #F89839",
"5. c #F6872B",
"6. c #F8A225",
"7. c #F9A63A",
"8. c #F9AA37",
"9. c #FAB63A",
"0. c #FFB226",
"q. c #F9D812",
"w. c #FAD338",
"e. c #FBCF34",
"r. c #F5884A",
"t. c #F79647",
"y. c #F48758",
"u. c #F39953",
"i. c #F7AA47",
"p. c #FAB443",
"a. c #FAB54D",
"s. c #F9B848",
"d. c #F9BC5C",
"f. c #F6B756",
"g. c #EFAC53",
"h. c #F29261",
"j. c #EF8E6D",
"k. c #EFB867",
"l. c #F1A872",
"z. c #F1B36C",
"x. c #82E77E",
"c. c #FBCD4D",
"v. c #FBCB48",
"b. c #F9C555",
"n. c #FAC45B",
"m. c #FBCB55",
"M. c #FDD25D",
"N. c #FBD043",
"B. c #F4C66F",
"V. c #0558AA",
"C. c #004CA1",
"Z. c #1C6AAF",
"A. c #1366B3",
"S. c #2A75B7",
"D. c #397ABA",
"F. c #2B6DB0",
"G. c #427EB8",
"H. c #0055CB",
"J. c #2575C8",
"K. c #7EB381",
"L. c #4C84BD",
"P. c #4984BC",
"I. c #578CBD",
"U. c #678FB8",
"Y. c #7EEC83",
"T. c #3C84C1",
"R. c #3D8BD2",
"E. c #4887C4",
"W. c #568CC2",
"Q. c #5A8EC4",
"!. c #5087C2",
"~. c #5D92C4",
"^. c #5993C7",
"/. c #5490D3",
"(. c #6295C6",
"). c #6499C6",
"_. c #6B9BC6",
"`. c #6A9CC9",
"'. c #6498C8",
"]. c #759FC6",
"[. c #6BA1CC",
"{. c #73A3CB",
"}. c #7CABCE",
"|. c #7DA4C6",
" X c #74ABD2",
".X c #7DACD1",
"XX c #78ABDB",
"oX c #7DB4DA",
"OX c #7AB4DA",
"+X c #7FB0CF",
"@X c #8CB38B",
"#X c #93A7BE",
"$X c #87CD85",
"%X c #8DD289",
"&X c #85FF85",
"*X c #8AFE8A",
"=X c #93F98E",
"-X c #9AEF99",
";X c #9CFE9D",
":X c #97F999",
">X c #89F48B",
",X c #A0FA9C",
"<X c #9FFFA4",
"1X c #A4FBA4",
"2X c #ABFCAB",
"3X c #A8F9AA",
"4X c #BBFEBB",
"5X c #B2FDB3",
"6X c #AFFBB1",
"7X c #F3D082",
"8X c #F2E893",
"9X c #82ACCE",
"0X c #8CACC5",
"qX c #96B4CA",
"wX c #81AFD2",
"eX c #81AFD8",
"rX c #83B2D4",
"tX c #82B5D9",
"yX c #85BADC",
"uX c #8BBCDC",
"iX c #88B5D4",
"pX c #90BCD8",
"aX c #89BFE1",
"sX c #82BCE1",
"dX c #96C1DD",
"fX c #BFFFC1",
"gX c #8CC2E4",
"hX c #8BC7EA",
"jX c #92CCEB",
"kX c #97CAE8",
"lX c #95D3EC",
"zX c #A5D5ED",
"xX c #C7FEC8",
"cX c None",
/* pixels */
"cXcXcXcXcXcXcXcXcXcXcXcXcXcXcXcXcXcXcXcXcXcXcXcXcXcXcXcXcXcXcXcXcXcXcXcXcXcXcXcXcXcXcXcXcXcXcXcXcXcXcXcXcXcXcXcXcXcXcXcXcXcXcXcX",
"cXcXcXcXcXcXcXcXcXcXcXcXcXcXcXcXcXcXcXcXcXcXcXcXcXcXcXcXcXcXcXcXcXcXcXcXcXcXcXcXcXcXcXcXcXcXcXcXcXcXcXcXcXcXcXcXcXcXcXcXcXcXcXcX",
"cXcXcXcXcXcXcXcXcXcXcXcXcXcXcXcXcXcXcXcXcXcXcXcXcXcXcXcXcXcXcXcXcXcXcXcXcXcXcXcXcXcXcXcXcXcXcXcXcXcXcXcXcXcXcXcXcXcXcXcXcXcXcXcX",
"cXcXcXcXcXcXcXcXcXcXcXcXcXcXcXcXcXcXcXcXcXcXcXcXcXcXcXcXcXcXcXcXcXcXcXcXcXcXcXcXcXcXcXcXcXcXcXcXcXcXcXcXcXcXcXcXcXcXcXcXcXcXcXcX",
"cXcXcXcXcXcXcXcXcXcXcXcXcXcXcXcXcXcXcXcXcXcXcXcXcXcXcXcXcXcXcXcXcXcXcXcXcXcXcXcXcXcXcXcXcXcXcXcXcXcXcXcXcXcXcXcXcXcXcXcXcXcXcXcX",
"cXcXcXcXcXcXcXcXcXcXcXcXcXcX;XcXcXcXcXcXcXcXcXcXcXcXcXcXcXcXcXcXcXcXcXcXcXcXcXcXcXcXcXcXcXcXcXcXcXcXcXcXcXcXcXcXcXcXcXcXcXcXcXcX",
"cXcXcXcXcXcXcX*X&X;.*.+.O.Y T cXcXcXcXcXcXcXcXcXcXcXcXcXcX-.o.X.T T Y X.+.-.&XcXcXcXcXcXcXcXcXcXcXcXcXcXcXcXcXcXcXcXcXcXcXcXcXcX",
"cXcXcXcXcX@Xh k k d d y q v F cXcXcXcXcXcXcXcXcXcXcXO.J M v v c c c v m S J U o.+.;.=XcXcXcXcXcXcXcXcXcXcXcXcXcXcXcXcXcXcXcXcXcX",
"cXcXcXcXcX=   . . o o O X 9 G cXcXcXcXcXcXcXcX=.L p 0 7 6 $ 6 6 6 6 7 7 9 0 g K I o.&.-.*XcXcXcXcXcXcXcXcXcXcXcXcXcXcXcXcXcXcXcX",
"cXcXcXcXcX^ o @ @ # # # + r G cXcXcXcXcXcXY.f 7 $ $ 6 7 9 9 0 0 0 0 0 r 0 0 9 7 0 g P +.-.;.:XcXcXcXcXcXcXcXcXcXcXcXcXcXcXcXcXcX",
"cXcXcXcXcX/ o @ @ # # # + u H cXcXcXcXcXx $ # 6 7 7 9 9 9 9 9 0 0 0 0 0 r r r t t 0 9 u P ;.&X&XcXcXcXcXcXcXcXcXcXcXcXcXcXcXcXcX",
"cXcXcXcXcX` . @ @ # # # + d Y cXcXcXcX8 @ $ 7 7 7 9 9 9 9 9 0 0 0 0 0 r 0 r r r r t t r 0 u #.;X*X6XcXcXcXcXcXcXcXcXcXcXcXcXcXcX",
"cXcXcXcXcX@Xo @ # # # $ + k O.cXcX) @ $ 7 9 7 7 9 9 7 9 9 9 0 9 0 0 r 0 r r r t t r t t i t 0 z ;X1X,XcXcXcXcXcXcXcXcXcXcXcXcXcX",
"cXcXcXcXcXcXO # # # $ $ + d &XcX* @ 7 7 7 7 7 7 7 9 9 9 9 0 0 0 0 0 0 0 r r r r r t t t t i i r d -X6X1XcXcXcXcXcXcXcXcXcXcXcXcX",
"cXcXcXcXcXcXo # # # # $ O [ >X& # 6 7 6 7 7 7 9 9 9 9 9 9 0 0 0 0 0 r r r r r r t r t t t i i i r u -X4X2XcXcXcXcXcXcXcXcXcXcXcX",
"cXcXcXcXcXcXO # # # $ $ $ k 8 @ 7 7 6 7 7 7 7 7 9 9 9 9 7 7 6 7 u 9 7 9 9 r r t t t t t i t i t p i y -X4X5XcXcXcXcXcXcXcXcXcXcX",
"cXcXcXcXcXcX@ # # $ $ $ 6 $ $ 8 7 7 7 7 7 7 7 9 9 7 6 e l W %XcXcXcX%X! l d 0 0 t t t i t i i i i p t y 6X4X6XcXcXcXcXcXcXcXcXcX",
"cXcXcXcXcXcX% # $ $ $ 6 $ 6 6 6 6 6 7 7 7 7 9 6 $ ~ ' cXcXcXcXcXcXcXcXcXcXcX! z 0 r t t t i i i i p p t f xX5XcXcXcXcXcXcXcXcXcX",
"cXcXcXcXcXcX# # $ $ $ 6 6 6 6 6 7 6 7 7 7 9 $ j cXcXcXcXcXcXcXcXcXcXcXcXcXcXcXcXcXx 0 i i i i i p i p p t [ xX1XcXcXcXcXcXcXcXcX",
"cXcXcXcXcXcX# $ 6 $ 6 $ 6 6 6 6 7 7 7 7 7 $ @XcXcXcXcXcXcXcXcXcXcXcXcXcXcXcXcXcXcXcX$.0 t i i i i p p p p t >XxX4XcXcXcXcXcXcXcX",
"cXcXcXcXcXcX% $ 6 6 $ 6 6 6 7 6 7 7 7 7 # E cXcXcXcXcXcXcXcXcXcXcXcXcXcXcXcXcXcXcXcXcXcXu i i i p p i p c p s 5X1XcXcXcXcXcXcXcX",
"cXcXcXcXcXcX# $ $ 6 6 6 6 7 6 6 7 7 9 # ) cXcXcXcXcXcXcXcX].Q.I.!.P.P.P.Q.cXcXcXcXcXcXcXcXr t p p i p c p c i | 4X2XcXcXcXcXcXcX",
"cXcXcXcXcXcX% $ $ 6 6 6 6 7 7 7 7 9 $ j cXcXcXcXcXcX|._.Q.W.Q.Q.W.W.P.D.S.F.S.P.cXcXcXcXcXcXr p i p i p p c p s ;X<XcXcXcXcXcXcX",
"cXcXcXcXcXcX8 $ 6 6 6 7 6 7 7 7 7 7 $ cXcXcXcXcXcX`.(.`.{.{.{.`.`.'.(.Q.W.!.D.A.Z.cXcXcXcXcX$.t p p p p c p c i | 1X2XcXcXcXcXcX",
"cXcXcXcXcXcX6 $ 6 6 7 7 7 7 7 7 9 @ ` cXcXcXcX0X).{.}.}..X9X}.}.{.`._.(.~.W.L.P.S.V.Q.cXcXcXcXz t p p p c p c c C =X;XcXcXcXcXcX",
"cXcXcXcXcXcX% 6 6 6 6 6 7 7 7 7 6 8 cXcXcXcX|.)..XrXuXdXrX.XwXwXwX.X{.`.).~.!.G.D.S.V.D.cXcXcXcXi p p p p c c c p :.=XcXcXcXcXcX",
"cXcXcXcXcXcX8 $ 7 6 7 7 7 7 7 9 $ _ cXcXcXcX XOXrX9X).L.oXuXtXrXeXwXwX X_.'.).(.Q.!.D.V.L.cXcXcX%.t c p c c c c p I *X3XcXcXcXcX",
"cXcXcXcXcXcXw 6 7 6 7 7 7 7 7 7 6 cXcXcXcXcXcXzXiX{.L.T.sXuXtXyXtXrX9X|. XtXuXqX}.^.E.D.C.cXcXcXcXi p p c p c c c C -.*XcXcXcXcX",
"cXcXcXcXcXcXw 6 6 7 7 7 7 7 7 7 h cXcXcXcXcXcXcX9XoXgXzXuXyXyXyXyXtXwXuXkXcXcXcXcXcX/.J.V.Z.cXcXcX[ i c c c c c c c +.&XcXcXcXcX",
"cXcXcXcXcXcXw 6 7 7 7 7 7 9 7 7 ! cXcXcXcXcXcX X+XgXyXgXgXgXgXgXgXtXsXlXcXcXcXcXcXcXcXcXH.A.cXcXcXcXi p c c c v v c ..Y.cXcXcXcX",
"cXcXcXcXcXcXw 6 7 7 7 7 7 9 9 7 %XcXcXcXcXcX[.oXyXyXgXgXgXhXgXgXgXOXkXcXcXcXcXcXcXd.0.a.cXcXcXcXcXcXb p c c c c v p R *.cXcXcXcX",
"cXcXcXcXcXcXe 6 7 7 9 9 9 7 9 0 cXcXcXcXcX}. XrXtXyXgXgXjXlXlXjXgXoXcXcXcXcXcX7X7.i.a.8.0.cXcXcXcXcXf p c c c v v c L +.1XcXcXcX",
"cXcXcXcXcXcXe 6 9 7 9 9 9 9 0 u cXcXcXcXcX(.wXeXtXyXaXgXhXkXjXlX XcXcXcXcXcXB.9.n.n.d.d.7.i.cXcXcXcX] p c c v v v c C o.1XcXcXcX",
"cXcXcXcXcXcXe 6 7 7 9 9 9 7 0 y cXcXcXcX9X`.wXwXtXyXyXaXgXhXjXoX|.cXcXcXcXcX9.n.n.n.n.d.f.i.cXcXcXcX .p c v c v v c C Y :XcXcXcX",
"cXcXcXcXcXcXh 6 9 9 9 9 9 7 r a cXcXcXcX`.`.wXwXwXtXtXyXaXaXhX~.cXcXcXcXcXa.b.b.c.c.m.n.d.a.cXcXcXcX .p v c c v v v m T =XcXcXcX",
"cXcXcXcXcXcXh 7 9 9 9 9 9 9 r s cXcXcXcX~.'.].wXwXrXtXuXyXkX^.U.cXcXcXcXB.e.c.e.w.N.c.b.n.a.cXcXcXcX .c c c v v v v m U =XcXcXcX",
"cXcXcXcXcXcXh 7 9 9 9 0 9 9 r i cXcXcXcX(.W._.{..X9XrXwXdXOXF.cXcXcXcXcX9.m.w.q.q.e.N.n.d.a.cXcXcXcX| p c v v v n v V H <XcXcXcX",
"cXcXcXcXcXcXh 7 9 9 0 9 0 9 u i %XcXcXcX9XD._.`.{.}..XiXuXV.cXcXcXcXcXp.f.m.N.e.q.w.c.n.9.k.cXcXcXcX{ p v v v v v n V U cXcXcXcX",
"cXcXcXcXcXcXh 7 0 9 9 0 0 9 r p [ cXcXcXcXD.T.'.`.{.{.}.P.cXcXcXcXcXg.p.n.b.c.c.c.c.M.s.p.cXcXcXcXcXP c v v v v n v V T cXcXcXcX",
"cXcXcXcXcXcX~ 7 0 9 0 0 0 0 0 p B cXcXcXcXcXT.T.R.E./.XXcXcXcXcXcXz.6.d.n.n.b.m.m.n.s.8.cXcXcXcXcXcXC c v v v v v v Z Y cXcXcXcX",
"cXcXcXcXcXcXQ 8 0 0 0 0 0 0 9 c c cXcXcXcXcXcXcX#XqXcXcXcXcXcXcXk.<.i.a.f.d.M.M.n.n.z.cXcXcXcXcXcXcXp v v v v n n v A X.cXcXcXcX",
"cXcXcXcXcXcXx.6 0 0 0 0 0 0 9 a n { cXcXcXcXcXcXr.t.cXcXcXcX7Xf.>.6.i.i.a.g.u.u.i.i.8XcXcXcXcXcXcX%.p v v v v n n v D ;.cXcXcXcX",
"cXcXcXcXcXcXcX6 0 0 r 0 r 0 0 r n v cXcXcXcX4 - 2 u.,.,.9.f.4.5.2.,.2.7.s.i.: > 3.8.N.B.cXcXcXcXcXB v v v v n n v n F cXcXcXcXcX",
"cXcXcXcXcXcXcXq 9 0 0 r 0 r r 9 b n } cXcXcXcX4 ; , y.5.3.2 r.t.4.2.,.,.2.7.a.p.i.7.>.i.cXcXcXcXcXc v v v v n n v M H cXcXcXcXcX",
"cXcXcXcXcXcXcXW 7 r r 0 r r r 0 r M v cXcXcXcXcX5 ; > 3 3 2 r.r.t.4.2.,.,.,.2.2.<.>.k.cXcXcXcXcXK c v v v n n n v A *.cXcXcXcXcX",
"cXcXcXcXcXcXcXcX7 r 0 u r r r r 0 b Z m cXcXcXcXcXcX> > , r.y.r.r.t.t.4.4.2.<.<.2.cXcXcXcXcXcX#.c v v v n n n n v F cXcXcXcXcXcX",
"cXcXcXcXcXcXcXcXq 0 r r r r r r r 0 S Z I cXcXcXcXcXcXcX3 1 < < r.r.3.3.5.3.u.z.cXcXcXcXcXcXcXs v v v n n n n v Z O.cXcXcXcXcXcX",
"cXcXcXcXcXcXcXcX_ 7 r r r t t r t r t S Z | cXcXcXcXcXcXcXcXj.j.y.h.h.j.l.cXcXcXcXcXcXcXcXcXB c v v v n n n n v D cXcXcXcXcXcXcX",
"cXcXcXcXcXcXcXcXcX0 r r r r t r t t 0 a D Z ] cXcXcXcXcXcXcXcXcXcXcXcXcXcXcXcXcXcXcXcXcXcX[ c n v v n n n n v Z *.cXcXcXcXcXcXcX",
"cXcXcXcXcXcXcXcXcX$.9 t t t t t t t i r a D D R cXcXcXcXcXcXcXcXcXcXcXcXcXcXcXcXcXcXcXcXK c v v v n n n n n v H cXcXcXcXcXcXcXcX",
"cXcXcXcXcXcXcXcXcXcXd 0 t t t t t t i t r a S F A @.cXcXcXcXcXcXcXcXcXcXcXcXcXcXcXcX_ B c m v v n n n n n v Z cXcXcXcXcXcXcXcXcX",
"cXcXcXcXcXcXcXcXcXcXcX9 t t t t i t t i i r r m D D cXcXcXcXcXcXcXcXcXcXcXcXcXcXcXx i v v v v v n n n n v n -.cXcXcXcXcXcXcXcXcX",
"cXcXcXcXcXcXcXcXcXcXcX$.9 i t t t i t i i p i 0 N cXcXcXcXcXcXcXcXcXcXcXcXcXcXcXK c n v v v n v n n n v n +.cXcXcXcXcXcXcXcXcXcX",
"cXcXcXcXcXcXcXcXcXcXcXcXW 0 i i i i i i i i t a cXcXcXcXcXcXcXcXcXcXcXcXcXcXcXcXcXf c v v v n n n n n v ..cXcXcXcXcXcXcXcXcXcXcX",
"cXcXcXcXcXcXcXcXcXcXcXcXcXz r i i i i i i i t cXcXcXcXcXcXcXcXcXcXcXcXcXcXcXcXcXcXcXN c n n n n n n v @.cXcXcXcXcXcXcXcXcXcXcXcX",
"cXcXcXcXcXcXcXcXcXcXcXcXcXcXz r i i i p p r $.cXcXcXcXcXcXcXcXcXcXcXcXcXcXcXcXcXcXcXcXN v n n n n v #.cXcXcXcXcXcXcXcXcXcXcXcXcX",
"cXcXcXcXcXcXcXcXcXcXcXcXcXcXcX( r t p p r ! cXcXcXcXcXcXcXcXcXcXcXcXcXcXcXcXcXcXcXcXcXcXb n n v n $.cXcXcXcXcXcXcXcXcXcXcXcXcXcX",
"cXcXcXcXcXcXcXcXcXcXcXcXcXcXcXcX%.t i t ' cXcXcXcXcXcXcXcXcXcXcXcXcXcXcXcXcXcXcXcXcXcXcXcXC v L cXcXcXcXcXcXcXcXcXcXcXcXcXcXcXcX",
"cXcXcXcXcXcXcXcXcXcXcXcXcXcXcXcXcXcXz Q cXcXcXcXcXcXcXcXcXcXcXcXcXcXcXcXcXcXcXcXcXcXcXcXcXcX[ cXcXcXcXcXcXcXcXcXcXcXcXcXcXcXcXcX",
"cXcXcXcXcXcXcXcXcXcXcXcXcXcXcXcXcXcXcXcXcXcXcXcXcXcXcXcXcXcXcXcXcXcXcXcXcXcXcXcXcXcXcXcXcXcXcXcXcXcXcXcXcXcXcXcXcXcXcXcXcXcXcXcX",
"cXcXcXcXcXcXcXcXcXcXcXcXcXcXcXcXcXcXcXcXcXcXcXcXcXcXcXcXcXcXcXcXcXcXcXcXcXcXcXcXcXcXcXcXcXcXcXcXcXcXcXcXcXcXcXcXcXcXcXcXcXcXcXcX",
"cXcXcXcXcXcXcXcXcXcXcXcXcXcXcXcXcXcXcXcXcXcXcXcXcXcXcXcXcXcXcXcXcXcXcXcXcXcXcXcXcXcXcXcXcXcXcXcXcXcXcXcXcXcXcXcXcXcXcXcXcXcXcXcX",
"cXcXcXcXcXcXcXcXcXcXcXcXcXcXcXcXcXcXcXcXcXcXcXcXcXcXcXcXcXcXcXcXcXcXcXcXcXcXcXcXcXcXcXcXcXcXcXcXcXcXcXcXcXcXcXcXcXcXcXcXcXcXcXcX",
"cXcXcXcXcXcXcXcXcXcXcXcXcXcXcXcXcXcXcXcXcXcXcXcXcXcXcXcXcXcXcXcXcXcXcXcXcXcXcXcXcXcXcXcXcXcXcXcXcXcXcXcXcXcXcXcXcXcXcXcXcXcXcXcX"
};
