/* XPM */
static char *result[] = {
/* columns rows colors chars-per-pixel */
"16 16 115 2 ",
"   c #004C00",
".  c #005B00",
"X  c #006A00",
"o  c #007300",
"O  c #007800",
"+  c #007900",
"@  c #007A00",
"#  c #007B00",
"$  c #017A01",
"%  c #007E00",
"&  c #217221",
"*  c #F86F38",
"=  c #D56F4E",
"-  c #008200",
";  c #008300",
":  c #018700",
">  c #008800",
",  c #008B00",
"<  c #009000",
"1  c #009100",
"2  c #009400",
"3  c #009500",
"4  c #009700",
"5  c #009800",
"6  c #009A00",
"7  c #009C00",
"8  c #009E00",
"9  c #059C05",
"0  c #0C9209",
"q  c #00A000",
"w  c #00A400",
"e  c #00A600",
"r  c #00A700",
"t  c #09A602",
"y  c #00A800",
"u  c #00AA00",
"i  c #00B300",
"p  c #00B400",
"a  c #06B205",
"s  c #00B900",
"d  c #00BD00",
"f  c #00BE00",
"g  c #00BF00",
"h  c #30832F",
"j  c #269D27",
"k  c #3D8F3D",
"l  c #35B236",
"z  c #33BD33",
"x  c #01C102",
"c  c #00C400",
"v  c #00C700",
"b  c #00C702",
"n  c #00CB00",
"m  c #0EC40F",
"M  c #07C90C",
"N  c #1CCA0A",
"B  c #00D300",
"V  c #03D404",
"C  c #0DDC0E",
"Z  c #14D814",
"A  c #1ADD1A",
"S  c #32C326",
"D  c #29DB29",
"F  c #38C33B",
"G  c #26E326",
"H  c #27E427",
"J  c #459D46",
"K  c #4BA54D",
"L  c #43BA43",
"P  c #69B764",
"I  c #43C943",
"U  c #45D846",
"Y  c #47D74C",
"T  c #59D647",
"R  c #49DA52",
"E  c #52DE55",
"W  c #47ED47",
"Q  c #43F244",
"!  c #53E254",
"~  c #4FF350",
"^  c #69C96C",
"/  c #60E761",
"(  c #61E562",
")  c #6FF26E",
"_  c #7EEB7E",
"`  c #72F172",
"'  c #7CF67B",
"]  c #FFBC0C",
"[  c #FCA21C",
"{  c #F59120",
"}  c #F48D3A",
"|  c #FB9839",
" . c #FEC82E",
".. c #FCCF3A",
"X. c #FDAB53",
"o. c #FCC06D",
"O. c #377CEF",
"+. c #3B80C3",
"@. c #679CC6",
"#. c #6299CB",
"$. c #769ED7",
"%. c #7197DD",
"&. c #58A7DD",
"*. c #70A6CF",
"=. c #7AB5DB",
"-. c #73B7E9",
";. c #B4A186",
":. c #84F285",
">. c #82BADE",
",. c #8FAAE4",
"<. c #83A5E9",
"1. c #85C3E6",
"2. c #8FC8ED",
"3. c #C3FEC2",
"4. c None",
/* pixels */
"4.4.4.4.4.4.4.4.4.4.4.4.4.4.4.4.",
"4.4.U W 4.4.4.! G ) 4.4.4.4.4.4.",
"4.&   I 4.L 5 < 3 e m :.4.4.4.4.",
"4.h . l j X + 2 8 3 1 y ( 4.4.4.",
"4.k O $ o 0 4.4.4.4.S q u _ 4.4.",
"4.J O ; : 4.4.,.%.4.4.T r x 3.4.",
"4.K # @ 4.4.#.*.@.+.O.4.N i / 4.",
"4.P + , 4.4.=.1.2.4.;.4.4.p D ' ",
"4.4.% t 4.$.>.-.4.4.] 4.4.s Z Q ",
"4.4.- w 4.<.&.4.4. ...4.4.d C ~ ",
"4.4.> 6 4.4.= o.[ { X.4.R g H 4.",
"4.4.9 4 b 4.4.* } | 4.4.v n ` 4.",
"4.4.^ 3 w B 4.4.4.4.4.M c A 4.4.",
"4.4.4.z 7 a 4.4.4.4.Y f V 4.4.4.",
"4.4.4.4.F 4.4.4.4.4.4.E 4.4.4.4.",
"4.4.4.4.4.4.4.4.4.4.4.4.4.4.4.4."
};
